<?xml version="1.0" encoding="utf-8"?>
<!-- Generator: Adobe Illustrator 18.0.0, SVG Export Plug-In . SVG Version: 6.00 Build 0)  -->
<!DOCTYPE svg PUBLIC "-//W3C//DTD SVG 1.1//EN" "http://www.w3.org/Graphics/SVG/1.1/DTD/svg11.dtd">
<svg version="1.1" id="Layer_1" xmlns="http://www.w3.org/2000/svg" xmlns:xlink="http://www.w3.org/1999/xlink" x="0px" y="0px"
	 viewBox="0 0 25 25" enable-background="new 0 0 25 25" xml:space="preserve">
<g>
	<g>
		<path fill="#1A1A1A" d="M12.5,2.5c-5.5,0-10,4.5-10,10s4.5,10,10,10c5.5,0,10-4.5,10-10S18,2.5,12.5,2.5z M12.6,19.9
			c-0.9,0-1.6-0.7-1.6-1.6c0-0.9,0.7-1.6,1.6-1.6c0.9,0,1.6,0.7,1.6,1.6C14.1,19.2,13.4,19.9,12.6,19.9z M16.6,14.1
			c-0.2,0.2-0.5,0.5-0.7,0.7c-0.3,0.3-0.8,0.3-1.1,0c-1.3-1-3.2-1-4.5,0c-0.3,0.3-0.8,0.3-1.1,0c-0.2-0.2-0.5-0.5-0.7-0.7
			c-0.3-0.3-0.3-0.9,0-1.2c2.2-2,6-1.9,8.1,0C17,13.3,17,13.8,16.6,14.1z M19.5,11.3c-0.3,0.3-0.8,0.3-1.1,0
			c-3.1-3.1-8.6-3.1-11.7,0.1c-0.3,0.3-0.8,0.3-1.1,0c-0.2-0.2-0.5-0.5-0.7-0.7c-0.3-0.3-0.3-0.8,0-1.1C9,5.2,16.4,5.4,20.3,9.4
			c0.3,0.3,0.3,0.8,0,1.1C20,10.8,19.8,11,19.5,11.3z M12.5,0.1C5.7,0.1,0.1,5.7,0.1,12.5c0,6.8,5.6,12.4,12.4,12.4
			s12.4-5.6,12.4-12.4C24.9,5.7,19.3,0.1,12.5,0.1z M12.5,22.7c-5.6,0-10.2-4.6-10.2-10.2c0-5.6,4.6-10.2,10.2-10.2
			s10.2,4.6,10.2,10.2C22.7,18.2,18.1,22.7,12.5,22.7z"/>
	</g>
</g>
</svg>
