<?xml version="1.0" encoding="utf-8"?>
<!-- Generator: Adobe Illustrator 18.0.0, SVG Export Plug-In . SVG Version: 6.00 Build 0)  -->
<!DOCTYPE svg PUBLIC "-//W3C//DTD SVG 1.1//EN" "http://www.w3.org/Graphics/SVG/1.1/DTD/svg11.dtd">
<svg version="1.1" id="Layer_1" xmlns="http://www.w3.org/2000/svg" xmlns:xlink="http://www.w3.org/1999/xlink" x="0px" y="0px"
	 viewBox="0 0 25 25" enable-background="new 0 0 25 25" xml:space="preserve">
<g>
	<g>
		<path fill="#B7B721" d="M12.6,19.9c-0.9,0-1.6-0.7-1.6-1.6s0.7-1.6,1.6-1.6c0.9,0,1.6,0.7,1.6,1.6C14.1,19.2,13.4,19.9,12.6,19.9z
			 M16.6,14.1c-0.2,0.2-0.5,0.5-0.7,0.7c-0.3,0.3-0.8,0.3-1.1,0c-1.3-1-3.2-1-4.5,0c-0.3,0.3-0.8,0.3-1.1,0
			c-0.2-0.2-0.5-0.5-0.7-0.7c-0.3-0.3-0.3-0.9,0-1.2c2.2-2,6-1.9,8.1,0C17,13.3,17,13.8,16.6,14.1z M19.5,11.3
			c-0.3,0.3-0.8,0.3-1.1,0c-3.1-3.1-8.6-3.1-11.7,0.1c-0.3,0.3-0.8,0.3-1.1,0c-0.2-0.2-0.5-0.5-0.7-0.7c-0.3-0.3-0.3-0.8,0-1.1
			C9,5.2,16.4,5.4,20.3,9.4c0.3,0.3,0.3,0.8,0,1.1S19.8,11,19.5,11.3z M12.5,0.1C5.7,0.1,0.1,5.7,0.1,12.5s5.6,12.4,12.4,12.4
			s12.4-5.6,12.4-12.4S19.3,0.1,12.5,0.1z"/>
	</g>
</g>
</svg>
