<?xml version="1.0" encoding="utf-8"?>
<!-- Generator: Adobe Illustrator 18.0.0, SVG Export Plug-In . SVG Version: 6.00 Build 0)  -->
<!DOCTYPE svg PUBLIC "-//W3C//DTD SVG 1.1//EN" "http://www.w3.org/Graphics/SVG/1.1/DTD/svg11.dtd">
<svg version="1.1" id="Layer_1" xmlns="http://www.w3.org/2000/svg" xmlns:xlink="http://www.w3.org/1999/xlink" x="0px" y="0px"
	 viewBox="0 0 25 25" enable-background="new 0 0 25 25" xml:space="preserve">
<g>
	<g>
		<path fill="#1A1A1A" d="M12.6,2.4c-5.5,0-10,4.5-10,10s4.5,10,10,10c5.5,0,10-4.5,10-10S18.1,2.4,12.6,2.4z M12.5,6.9
			c1.1,0,1.9,0.9,1.9,1.9c0,1.1-0.9,1.9-1.9,1.9c-1.1,0-1.9-0.9-1.9-1.9C10.6,7.8,11.4,6.9,12.5,6.9z M18.6,9l-3.3,4.4
			c-0.3,0.3-0.6,0.4-0.8,0.5l0,0l-0.1,3.9c0,0.4-0.4,0.6-0.8,0.6l-2.4-0.1c-0.4,0-0.8-0.4-0.8-0.9l-0.1-4.3H10l-1.7,4.7
			c-0.3,0.7-1.7,0.6-1.5-0.3l2-5.2c0.3-0.6,0.9-0.8,1.2-0.8l4.2,0c0.2,0,0.4-0.2,0.5-0.4l2.6-3.2C17.8,7.4,19,8.2,18.6,9z M12.6,0
			C5.7,0,0.2,5.6,0.2,12.4c0,6.8,5.6,12.4,12.4,12.4S25,19.2,25,12.4C25,5.6,19.4,0,12.6,0z M12.6,22.6C6.9,22.6,2.4,18,2.4,12.4
			c0-5.6,4.6-10.2,10.2-10.2s10.2,4.6,10.2,10.2C22.8,18,18.2,22.6,12.6,22.6z"/>
	</g>
</g>
</svg>
