<?xml version="1.0" encoding="utf-8"?>
<!-- Generator: Adobe Illustrator 18.0.0, SVG Export Plug-In . SVG Version: 6.00 Build 0)  -->
<!DOCTYPE svg PUBLIC "-//W3C//DTD SVG 1.1//EN" "http://www.w3.org/Graphics/SVG/1.1/DTD/svg11.dtd">
<svg version="1.1" id="Layer_1" xmlns="http://www.w3.org/2000/svg" xmlns:xlink="http://www.w3.org/1999/xlink" x="0px" y="0px"
	 viewBox="0 0 25 25" enable-background="new 0 0 25 25" xml:space="preserve">
<g>
	<g>
		<path fill="#7A1676" d="M12.5,6.9c1.1,0,1.9,0.9,1.9,1.9c0,1.1-0.9,1.9-1.9,1.9c-1.1,0-1.9-0.9-1.9-1.9S11.4,6.9,12.5,6.9z
			 M18.6,9l-3.3,4.4c-0.3,0.3-0.6,0.4-0.8,0.5l0,0l-0.1,3.9c0,0.4-0.4,0.6-0.8,0.6l-2.4-0.1c-0.4,0-0.8-0.4-0.8-0.9l-0.1-4.3H10
			l-1.7,4.7c-0.3,0.7-1.7,0.6-1.5-0.3l2-5.2c0.3-0.6,0.9-0.8,1.2-0.8h4.2c0.2,0,0.4-0.2,0.5-0.4l2.6-3.2C17.8,7.4,19,8.2,18.6,9z
			 M12.6,0C5.7,0,0.2,5.6,0.2,12.4s5.6,12.4,12.4,12.4S25,19.2,25,12.4S19.4,0,12.6,0z"/>
	</g>
</g>
<path fill="#7A1676" d="M-17.4-22.1h30.3c3.7,0,6.7,3,6.7,6.7v0c0,3.7-3,6.7-6.7,6.7h-30.3c-3.7,0-6.7-3-6.7-6.7v0
	C-24.1-19.1-21.1-22.1-17.4-22.1z"/>
</svg>
