<?xml version="1.0" encoding="utf-8"?>
<!-- Generator: Adobe Illustrator 18.0.0, SVG Export Plug-In . SVG Version: 6.00 Build 0)  -->
<!DOCTYPE svg PUBLIC "-//W3C//DTD SVG 1.1//EN" "http://www.w3.org/Graphics/SVG/1.1/DTD/svg11.dtd">
<svg version="1.1" id="Layer_1" xmlns="http://www.w3.org/2000/svg" xmlns:xlink="http://www.w3.org/1999/xlink" x="0px" y="0px"
	 viewBox="0 0 25 25" enable-background="new 0 0 25 25" xml:space="preserve">
<path fill="#FFFFFF" stroke="#1D1D1B" stroke-width="0.602" stroke-linecap="round" stroke-linejoin="round" stroke-miterlimit="10" d="
	M12.5,12.5"/>
<path fill="#FFFFFF" stroke="#1D1D1B" stroke-width="0.602" stroke-linecap="round" stroke-linejoin="round" stroke-miterlimit="10" d="
	M13,12.5"/>
<g>
	<g>
		<path fill="#1A1A1A" d="M12.5,2.3c-5.5,0-10,4.5-10,10s4.5,10,10,10c5.5,0,10-4.5,10-10S18,2.3,12.5,2.3z M16.3,5.2
			c0.9,0,1.6,0.7,1.6,1.6c0,0.9-0.7,1.6-1.6,1.6c-0.9,0-1.6-0.7-1.6-1.6C14.8,5.9,15.5,5.2,16.3,5.2z M8.3,5.2
			c0.9,0,1.6,0.7,1.6,1.6c0,0.9-0.7,1.6-1.6,1.6S6.7,7.6,6.7,6.7C6.7,5.9,7.4,5.2,8.3,5.2z M19.6,14.3l-1.4-3.5h-0.2L18,13.6l0,0
			v5.7c0,0.4-0.3,0.8-0.7,0.8c-0.4,0-0.7-0.4-0.7-0.8v-4.7h-0.4v4.7c0,0.4-0.3,0.8-0.7,0.8c-0.4,0-0.7-0.4-0.7-0.8V14c0,0,0,0,0,0
			l-0.1-3.2h-0.2l-1.4,3.5c-0.1,0.3-0.5,0.3-0.8,0.2c-0.3,0.2-0.7,0.1-0.8-0.2l-1.4-3.5H10L10,13.6l0,0v5.7c0,0.4-0.3,0.8-0.7,0.8
			c-0.4,0-0.7-0.4-0.7-0.8v-4.7H8.2v4.7c0,0.4-0.3,0.8-0.7,0.8c-0.4,0-0.7-0.4-0.7-0.8V14c0,0,0,0,0,0l-0.1-3.2H6.5l-1.4,3.5
			C5,14.9,3.8,14.5,4,13.8l1.6-4.2C5.8,9.1,6.2,9,6.5,9h3.7c0.3,0,0.8,0.1,1,0.6l1.2,3.1l1.2-3.1c0.2-0.5,0.7-0.6,1-0.6h3.7
			c0.3,0,0.8,0.1,1,0.6l1.6,4.2C21,14.5,19.8,14.9,19.6,14.3z M12.5,0C5.7,0,0.1,5.5,0.1,12.4c0,6.8,5.6,12.4,12.4,12.4
			s12.4-5.6,12.4-12.4C24.9,5.5,19.3,0,12.5,0z M12.5,22.6C6.8,22.6,2.3,18,2.3,12.4S6.8,2.1,12.5,2.1s10.2,4.6,10.2,10.2
			S18.1,22.6,12.5,22.6z"/>
	</g>
</g>
</svg>
