<?xml version="1.0" encoding="utf-8"?>
<!-- Generator: Adobe Illustrator 18.0.0, SVG Export Plug-In . SVG Version: 6.00 Build 0)  -->
<!DOCTYPE svg PUBLIC "-//W3C//DTD SVG 1.1//EN" "http://www.w3.org/Graphics/SVG/1.1/DTD/svg11.dtd">
<svg version="1.1" id="Layer_1" xmlns="http://www.w3.org/2000/svg" xmlns:xlink="http://www.w3.org/1999/xlink" x="0px" y="0px"
	 viewBox="0 0 25 25" enable-background="new 0 0 25 25" xml:space="preserve">
<path fill="#FFFFFF" stroke="#1D1D1B" stroke-width="0.602" stroke-linecap="round" stroke-linejoin="round" stroke-miterlimit="10" d="
	M12.5,12.5"/>
<path fill="#FFFFFF" stroke="#1D1D1B" stroke-width="0.602" stroke-linecap="round" stroke-linejoin="round" stroke-miterlimit="10" d="
	M13,12.5"/>
<g>
	<g>
		<path fill="#1A1A1A" d="M12.5,0.1C5.6,0.1,0.1,5.7,0.1,12.5c0,6.8,5.6,12.4,12.4,12.4s12.4-5.6,12.4-12.4
			C24.9,5.7,19.3,0.1,12.5,0.1z M12.5,22.8c-5.6,0-10.2-4.6-10.2-10.2c0-5.6,4.6-10.2,10.2-10.2s10.2,4.6,10.2,10.2
			C22.7,18.2,18.1,22.8,12.5,22.8z M15.9,11.4H9.1c-0.3,0-0.5,0.2-0.5,0.5v0.5c0,0.3,0.2,0.5,0.5,0.5h6.7c0.3,0,0.5-0.2,0.5-0.5
			v-0.5C16.4,11.6,16.1,11.4,15.9,11.4z M15.9,14.8H9.1c-0.3,0-0.5,0.2-0.5,0.5v0.5c0,0.3,0.2,0.5,0.5,0.5h6.7
			c0.3,0,0.5-0.2,0.5-0.5v-0.5C16.4,15.1,16.1,14.8,15.9,14.8z M15.9,8H9.1C8.8,8,8.6,8.3,8.6,8.5v0.5c0,0.3,0.2,0.5,0.5,0.5h6.7
			c0.3,0,0.5-0.2,0.5-0.5V8.5C16.4,8.3,16.1,8,15.9,8z M12.5,2.5c-5.5,0-10,4.5-10,10s4.5,10,10,10c5.5,0,10-4.5,10-10
			S18,2.5,12.5,2.5z M18.8,17.9c0,0.5-0.4,1-1,1H7.1c-0.5,0-1-0.4-1-1V6.5c0-0.5,0.4-1,1-1h10.7c0.5,0,1,0.4,1,1V17.9z"/>
	</g>
</g>
</svg>
