<?xml version="1.0" encoding="utf-8"?>
<!-- Generator: Adobe Illustrator 18.0.0, SVG Export Plug-In . SVG Version: 6.00 Build 0)  -->
<!DOCTYPE svg PUBLIC "-//W3C//DTD SVG 1.1//EN" "http://www.w3.org/Graphics/SVG/1.1/DTD/svg11.dtd">
<svg version="1.1" id="Layer_1" xmlns="http://www.w3.org/2000/svg" xmlns:xlink="http://www.w3.org/1999/xlink" x="0px" y="0px"
	 viewBox="0 0 25 25" enable-background="new 0 0 25 25" xml:space="preserve">
<path fill="#FFFFFF" stroke="#1D1D1B" stroke-width="0.602" stroke-linecap="round" stroke-linejoin="round" stroke-miterlimit="10" d="
	M12.5,12.4"/>
<path fill="#FFFFFF" stroke="#1D1D1B" stroke-width="0.602" stroke-linecap="round" stroke-linejoin="round" stroke-miterlimit="10" d="
	M13,12.4"/>
<g>
	<g>
		<path fill="#1A9022" d="M15,13.6c-0.1,0-0.2,0-0.3,0h-1.1v6.5c0,0.2-0.2,0.4-0.4,0.4h-1.7c-0.2,0-0.4-0.2-0.4-0.4v-6.5H10
			c-0.1,0-0.1,0-0.2,0c-1.4,0-2.6-1.2-2.6-2.6c0-0.6,0.2-1.1,0.5-1.6C7.4,9,7.2,8.4,7.2,7.8c0-1.4,1.2-2.6,2.6-2.6
			c0.1,0,0.2,0,0.3,0C10.6,4.5,11.4,4,12.3,4s1.7,0.5,2.2,1.2c0.1,0,0.2,0,0.3,0c1.4,0,2.6,1.2,2.6,2.6c0,0.6-0.2,1.1-0.5,1.5
			c0.4,0.4,0.6,1,0.6,1.6C17.6,12.5,16.5,13.6,15,13.6z M12.6,0.1C5.7,0.1,0.2,5.7,0.2,12.5s5.6,12.4,12.4,12.4S25,19.3,25,12.5
			S19.4,0.1,12.6,0.1z"/>
	</g>
</g>
</svg>
