<?xml version="1.0" encoding="utf-8"?>
<!-- Generator: Adobe Illustrator 18.0.0, SVG Export Plug-In . SVG Version: 6.00 Build 0)  -->
<!DOCTYPE svg PUBLIC "-//W3C//DTD SVG 1.1//EN" "http://www.w3.org/Graphics/SVG/1.1/DTD/svg11.dtd">
<svg version="1.1" id="Layer_1" xmlns="http://www.w3.org/2000/svg" xmlns:xlink="http://www.w3.org/1999/xlink" x="0px" y="0px"
	 viewBox="0 0 25 25" enable-background="new 0 0 25 25" xml:space="preserve">
<path fill="#FFFFFF" stroke="#1D1D1B" stroke-width="0.602" stroke-linecap="round" stroke-linejoin="round" stroke-miterlimit="10" d="
	M12.5,12.4"/>
<path fill="#FFFFFF" stroke="#1D1D1B" stroke-width="0.602" stroke-linecap="round" stroke-linejoin="round" stroke-miterlimit="10" d="
	M13,12.4"/>
<g>
	<g>
		<path fill="#1A1A1A" d="M12.6,2.5c-5.5,0-10,4.5-10,10s4.5,10,10,10c5.5,0,10-4.5,10-10S18.1,2.5,12.6,2.5z M15,13.6
			c-0.1,0-0.2,0-0.3,0l-1.1,0v6.5c0,0.2-0.2,0.4-0.4,0.4h-1.7c-0.2,0-0.4-0.2-0.4-0.4v-6.5l-1.1,0c-0.1,0-0.1,0-0.2,0
			c-1.4,0-2.6-1.2-2.6-2.6c0-0.6,0.2-1.1,0.5-1.6c-0.3-0.4-0.5-1-0.5-1.6c0-1.4,1.2-2.6,2.6-2.6c0.1,0,0.2,0,0.3,0
			c0.5-0.7,1.3-1.2,2.2-1.2s1.7,0.5,2.2,1.2c0.1,0,0.2,0,0.3,0c1.4,0,2.6,1.2,2.6,2.6c0,0.6-0.2,1.1-0.5,1.5c0.4,0.4,0.6,1,0.6,1.6
			C17.6,12.5,16.5,13.6,15,13.6z M12.6,0.1C5.7,0.1,0.2,5.7,0.2,12.5s5.6,12.4,12.4,12.4S25,19.3,25,12.5S19.4,0.1,12.6,0.1z
			 M12.6,22.7c-5.6,0-10.2-4.6-10.2-10.2c0-5.6,4.6-10.2,10.2-10.2s10.2,4.6,10.2,10.2C22.8,18.2,18.2,22.7,12.6,22.7z"/>
	</g>
</g>
</svg>
