<?xml version="1.0" encoding="utf-8"?>
<!-- Generator: Adobe Illustrator 18.0.0, SVG Export Plug-In . SVG Version: 6.00 Build 0)  -->
<!DOCTYPE svg PUBLIC "-//W3C//DTD SVG 1.1//EN" "http://www.w3.org/Graphics/SVG/1.1/DTD/svg11.dtd">
<svg version="1.1" id="Layer_1" xmlns="http://www.w3.org/2000/svg" xmlns:xlink="http://www.w3.org/1999/xlink" x="0px" y="0px"
	 viewBox="0 0 25 25" enable-background="new 0 0 25 25" xml:space="preserve">
<g>
	<g>
		<path fill="#1A1A1A" d="M12.5,0C7.7,0,3.8,4,3.8,8.8c0,1.1,0.4,2.6,0.6,3.3l5.4,11.2c1.1,2.3,4.2,2.2,5.3,0l5.1-10.6
			c0.6-1.2,1-2.5,1-4C21.2,3.9,17.3,0,12.5,0z M12.5,13c-2.4,0-4.3-1.9-4.3-4.3c0-2.4,1.9-4.3,4.3-4.3s4.3,1.9,4.3,4.3
			C16.8,11.1,14.9,13,12.5,13z"/>
	</g>
</g>
</svg>
