<?xml version="1.0" encoding="utf-8"?>
<!-- Generator: Adobe Illustrator 18.0.0, SVG Export Plug-In . SVG Version: 6.00 Build 0)  -->
<!DOCTYPE svg PUBLIC "-//W3C//DTD SVG 1.1//EN" "http://www.w3.org/Graphics/SVG/1.1/DTD/svg11.dtd">
<svg version="1.1" id="Layer_1" xmlns="http://www.w3.org/2000/svg" xmlns:xlink="http://www.w3.org/1999/xlink" x="0px" y="0px"
	 viewBox="0 0 25 25" enable-background="new 0 0 25 25" xml:space="preserve">
<g>
	<g>
		<path fill="#B74021" d="M19.3,13.8c0,0.5-0.6,1-1.2,1h-3.5v3.5c0,0.5-0.4,1-1,1h-2.5c-0.5,0-1-0.4-1-1v-3.5H6.8c-0.5,0-1-0.4-1-1
			v-2.5c0-0.5,0.4-1,1-1h3.5V6.8c0-0.5,0.4-1,1-1h2.5c0.5,0,1,0.4,1,1v3.5h3.5c0.5,0,1,0.4,1,1V13.8L19.3,13.8z M12.5,0.1
			C5.7,0.1,0.1,5.7,0.1,12.5s5.6,12.4,12.4,12.4s12.4-5.6,12.4-12.4S19.3,0.1,12.5,0.1z"/>
	</g>
</g>
</svg>
