<?xml version="1.0" encoding="utf-8"?>
<!-- Generator: Adobe Illustrator 18.0.0, SVG Export Plug-In . SVG Version: 6.00 Build 0)  -->
<!DOCTYPE svg PUBLIC "-//W3C//DTD SVG 1.1//EN" "http://www.w3.org/Graphics/SVG/1.1/DTD/svg11.dtd">
<svg version="1.1" id="Layer_1" xmlns="http://www.w3.org/2000/svg" xmlns:xlink="http://www.w3.org/1999/xlink" x="0px" y="0px"
	 viewBox="0 0 25 25" enable-background="new 0 0 25 25" xml:space="preserve">
<g>
	<g>
		<path fill="#1A1A1A" d="M10.9,8.9H9.3C9,8.9,8.8,9.1,8.8,9.4v1.9c0,0.3,0.2,0.5,0.5,0.5h1.6c0.3,0,0.5-0.2,0.5-0.5V9.4
			C11.4,9.1,11.2,8.9,10.9,8.9z M12.5,0.1C5.7,0.1,0.1,5.7,0.1,12.5c0,6.8,5.6,12.4,12.4,12.4s12.4-5.6,12.4-12.4
			C24.9,5.7,19.3,0.1,12.5,0.1z M12.5,22.7c-5.6,0-10.2-4.6-10.2-10.2S6.8,2.3,12.5,2.3s10.2,4.6,10.2,10.2S18.1,22.7,12.5,22.7z
			 M15.3,13.4h-1.6c-0.3,0-0.5,0.2-0.5,0.5v1.9c0,0.3,0.2,0.5,0.5,0.5h1.6c0.3,0,0.5-0.2,0.5-0.5v-1.9
			C15.8,13.6,15.6,13.4,15.3,13.4z M10.9,13.4H9.3c-0.3,0-0.5,0.2-0.5,0.5v1.9c0,0.3,0.2,0.5,0.5,0.5h1.6c0.3,0,0.5-0.2,0.5-0.5
			v-1.9C11.4,13.6,11.2,13.4,10.9,13.4z M15.3,8.9h-1.6c-0.3,0-0.5,0.2-0.5,0.5v1.9c0,0.3,0.2,0.5,0.5,0.5h1.6
			c0.3,0,0.5-0.2,0.5-0.5V9.4C15.8,9.1,15.6,8.9,15.3,8.9z M12.5,2.5c-5.5,0-10,4.5-10,10c0,5.5,4.5,10,10,10c5.5,0,10-4.5,10-10
			C22.5,7,18,2.5,12.5,2.5z M18.6,18.5c0,0.5-0.4,1-1,1H7c-0.5,0-1-0.4-1-1V7.2c0-0.5,0.4-1,1-1h4.3l0.7-2.2
			c0.1-0.2,0.3-0.5,0.5-0.5h1c0.4,0,0.5,0.3,0.5,0.5l0.7,2.2h3.1c0.5,0,1,0.4,1,1V18.5z"/>
	</g>
</g>
</svg>
