<?xml version="1.0" encoding="utf-8"?>
<!-- Generator: Adobe Illustrator 18.0.0, SVG Export Plug-In . SVG Version: 6.00 Build 0)  -->
<!DOCTYPE svg PUBLIC "-//W3C//DTD SVG 1.1//EN" "http://www.w3.org/Graphics/SVG/1.1/DTD/svg11.dtd">
<svg version="1.1" id="Layer_1" xmlns="http://www.w3.org/2000/svg" xmlns:xlink="http://www.w3.org/1999/xlink" x="0px" y="0px"
	 viewBox="0 0 25 25" enable-background="new 0 0 25 25" xml:space="preserve">
<g>
	<g>
		<path fill="#16785D" d="M10.9,8.9H9.3C9,8.9,8.8,9.1,8.8,9.4v1.9c0,0.3,0.2,0.5,0.5,0.5h1.6c0.3,0,0.5-0.2,0.5-0.5V9.4
			C11.4,9.1,11.2,8.9,10.9,8.9z M12.5,0.1C5.7,0.1,0.1,5.7,0.1,12.5s5.6,12.4,12.4,12.4s12.4-5.6,12.4-12.4S19.3,0.1,12.5,0.1z
			 M15.3,13.4h-1.6c-0.3,0-0.5,0.2-0.5,0.5v1.9c0,0.3,0.2,0.5,0.5,0.5h1.6c0.3,0,0.5-0.2,0.5-0.5v-1.9
			C15.8,13.6,15.6,13.4,15.3,13.4z M10.9,13.4H9.3c-0.3,0-0.5,0.2-0.5,0.5v1.9c0,0.3,0.2,0.5,0.5,0.5h1.6c0.3,0,0.5-0.2,0.5-0.5
			v-1.9C11.4,13.6,11.2,13.4,10.9,13.4z M15.3,8.9h-1.6c-0.3,0-0.5,0.2-0.5,0.5v1.9c0,0.3,0.2,0.5,0.5,0.5h1.6
			c0.3,0,0.5-0.2,0.5-0.5V9.4C15.8,9.1,15.6,8.9,15.3,8.9z M18.8,18.5c0,0.5-0.6,1-1.2,1H7c-0.5,0-1-0.4-1-1V7.2c0-0.5,0.4-1,1-1
			h4.3L12,4c0.1-0.2,0.3-0.5,0.5-0.5h1C13.9,3.5,14,3.8,14,4l0.7,2.2h3.1c0.5,0,1,0.4,1,1V18.5L18.8,18.5z"/>
	</g>
</g>
</svg>
