<?xml version="1.0" encoding="utf-8"?>
<!-- Generator: Adobe Illustrator 18.0.0, SVG Export Plug-In . SVG Version: 6.00 Build 0)  -->
<!DOCTYPE svg PUBLIC "-//W3C//DTD SVG 1.1//EN" "http://www.w3.org/Graphics/SVG/1.1/DTD/svg11.dtd">
<svg version="1.1" id="Layer_1" xmlns="http://www.w3.org/2000/svg" xmlns:xlink="http://www.w3.org/1999/xlink" x="0px" y="0px"
	 viewBox="0 0 25 25" enable-background="new 0 0 25 25" xml:space="preserve">
<g>
	<g>
		<path fill="#1A1A1A" d="M12.6,2.5c-5.5,0-10,4.5-10,10s4.5,10,10,10c5.5,0,10-4.5,10-10S18.1,2.5,12.6,2.5z M13.4,19.8v0.6
			c0,0.3-0.3,0.5-0.7,0.5c-0.4,0-0.7-0.2-0.7-0.5v-0.6c-2.5-0.1-4.4-1.4-4.4-2.5c0-0.6,0.5-1.4,1.2-1.4c0.8,0,1.4,1.3,3.2,1.5v-4.1
			c-1.9-0.7-4-1.5-4-4.1c0-2.6,1.9-3.7,4-4V4.6c0-0.3,0.3-0.5,0.7-0.5c0.3,0,0.7,0.2,0.7,0.5v0.5c1.3,0,3.5,0.4,3.5,1.6
			c0,0.5-0.3,1.4-1.1,1.4c-0.6,0-1-0.7-2.4-0.8V11c1.8,0.7,3.9,1.6,3.9,4.4C17.3,17.9,15.7,19.4,13.4,19.8z M13.3,13.8v3.6
			c0.9-0.2,1.5-0.7,1.5-1.7C14.8,14.7,14.2,14.2,13.3,13.8z M10.6,8.9c0,0.9,0.7,1.3,1.6,1.7V7.5C11.2,7.6,10.6,8.1,10.6,8.9z
			 M12.6,0.1C5.7,0.1,0.2,5.7,0.2,12.5c0,6.8,5.6,12.4,12.4,12.4S25,19.3,25,12.5C25,5.7,19.4,0.1,12.6,0.1z M12.6,22.7
			c-5.6,0-10.2-4.6-10.2-10.2c0-5.6,4.6-10.2,10.2-10.2s10.2,4.6,10.2,10.2C22.8,18.2,18.2,22.7,12.6,22.7z"/>
	</g>
</g>
</svg>
