<?xml version="1.0" encoding="utf-8"?>
<!-- Generator: Adobe Illustrator 18.0.0, SVG Export Plug-In . SVG Version: 6.00 Build 0)  -->
<!DOCTYPE svg PUBLIC "-//W3C//DTD SVG 1.1//EN" "http://www.w3.org/Graphics/SVG/1.1/DTD/svg11.dtd">
<svg version="1.1" id="Layer_1" xmlns="http://www.w3.org/2000/svg" xmlns:xlink="http://www.w3.org/1999/xlink" x="0px" y="0px"
	 viewBox="0 0 25 25" enable-background="new 0 0 25 25" xml:space="preserve">
<g>
	<g>
		<path fill="#22357C" d="M13.4,19.8v0.6c0,0.3-0.3,0.5-0.7,0.5S12,20.7,12,20.4v-0.6c-2.5-0.1-4.4-1.4-4.4-2.5
			c0-0.6,0.5-1.4,1.2-1.4c0.8,0,1.4,1.3,3.2,1.5v-4.1c-1.9-0.7-4-1.5-4-4.1s1.9-3.7,4-4V4.6c0-0.3,0.3-0.5,0.7-0.5
			c0.3,0,0.7,0.2,0.7,0.5v0.5c1.3,0,3.5,0.4,3.5,1.6c0,0.5-0.3,1.4-1.1,1.4c-0.6,0-1-0.7-2.4-0.8V11c1.8,0.7,3.9,1.6,3.9,4.4
			C17.3,17.9,15.7,19.4,13.4,19.8z M13.3,13.8v3.6c0.9-0.2,1.5-0.7,1.5-1.7S14.2,14.2,13.3,13.8z M10.6,8.9c0,0.9,0.7,1.3,1.6,1.7
			V7.5C11.2,7.6,10.6,8.1,10.6,8.9z M12.6,0.1C5.7,0.1,0.2,5.7,0.2,12.5s5.6,12.4,12.4,12.4S25,19.3,25,12.5S19.4,0.1,12.6,0.1z"/>
	</g>
</g>
</svg>
