<?xml version="1.0" encoding="utf-8"?>
<!-- Generator: Adobe Illustrator 18.0.0, SVG Export Plug-In . SVG Version: 6.00 Build 0)  -->
<!DOCTYPE svg PUBLIC "-//W3C//DTD SVG 1.1//EN" "http://www.w3.org/Graphics/SVG/1.1/DTD/svg11.dtd">
<svg version="1.1" id="Layer_1" xmlns="http://www.w3.org/2000/svg" xmlns:xlink="http://www.w3.org/1999/xlink" x="0px" y="0px"
	 viewBox="0 0 25 25" enable-background="new 0 0 25 25" xml:space="preserve">
<g>
	<g>
		<path fill="#1A5774" d="M14.3,7.3c-0.1-0.3-0.2-0.6-0.8-0.6h-2.1c-0.5,0-0.7,0.2-0.8,0.6l-0.3,0.9h4.2L14.3,7.3z M10.6,11.7H9.3
			c-0.2,0-0.4,0.2-0.4,0.4v1.6c0,0.2,0.2,0.4,0.4,0.4h1.3c0.2,0,0.4-0.2,0.4-0.4v-1.6C11,11.9,10.8,11.7,10.6,11.7z M15.9,11.8h-1.2
			c-0.2,0-0.4,0.2-0.4,0.4v1.6c0,0.2,0.2,0.4,0.4,0.4H16c0.2,0,0.4-0.2,0.4-0.4v-1.6C16.4,12,16.3,11.8,15.9,11.8z M18.9,18.4H6.2
			c-0.5,0-1-0.4-1-1V9.1c0-0.5,0.4-1,1-1h2.9l0.5-1.7c0.1-0.5,0.3-1,1.2-1h3.5c0.9,0,1,0.5,1.2,1L16,8.1h3c0.5,0,1,0.4,1,1v8.3
			C19.9,17.9,19.4,18.4,18.9,18.4z M12.6,0.1C5.7,0.1,0.2,5.7,0.2,12.5s5.6,12.4,12.4,12.4S25,19.4,25,12.5
			C25,5.7,19.4,0.1,12.6,0.1z"/>
	</g>
</g>
</svg>
