<?xml version="1.0" encoding="utf-8"?>
<!-- Generator: Adobe Illustrator 18.0.0, SVG Export Plug-In . SVG Version: 6.00 Build 0)  -->
<!DOCTYPE svg PUBLIC "-//W3C//DTD SVG 1.1//EN" "http://www.w3.org/Graphics/SVG/1.1/DTD/svg11.dtd">
<svg version="1.1" id="Layer_1" xmlns="http://www.w3.org/2000/svg" xmlns:xlink="http://www.w3.org/1999/xlink" x="0px" y="0px"
	 viewBox="0 0 25 25" enable-background="new 0 0 25 25" xml:space="preserve">
<g>
	<g>
		<path fill="#1A1A1A" d="M12.6,0.1C5.7,0.1,0.2,5.7,0.2,12.5c0,6.8,5.6,12.4,12.4,12.4S25,19.3,25,12.5C25,5.7,19.4,0.1,12.6,0.1z
			 M12.6,22.7c-5.6,0-10.2-4.6-10.2-10.2c0-5.6,4.6-10.2,10.2-10.2s10.2,4.6,10.2,10.2C22.8,18.1,18.2,22.7,12.6,22.7z M12.6,2.5
			c-5.5,0-10,4.5-10,10s4.5,10,10,10c5.5,0,10-4.5,10-10S18.1,2.5,12.6,2.5z M13.8,18.9c-0.3,0.3-0.8,0.7-1.3,0.8c0,0,0,0,0,0h-0.1
			c0,0,0,0,0,0c-0.5,0-0.9-0.4-1.3-0.8c-3.4-3.6-5.8-4.1-5.9-8C5.3,9,6.4,7.2,8.2,6.8c1.9-0.4,3.4,1,4.3,2.5h0.1
			c0.9-1.5,2.4-2.9,4.3-2.5c1.8,0.4,3,2.2,2.9,4C19.6,14.8,17.2,15.2,13.8,18.9z"/>
	</g>
</g>
</svg>
