<?xml version="1.0" encoding="utf-8"?>
<!-- Generator: Adobe Illustrator 18.0.0, SVG Export Plug-In . SVG Version: 6.00 Build 0)  -->
<!DOCTYPE svg PUBLIC "-//W3C//DTD SVG 1.1//EN" "http://www.w3.org/Graphics/SVG/1.1/DTD/svg11.dtd">
<svg version="1.1" id="Layer_1" xmlns="http://www.w3.org/2000/svg" xmlns:xlink="http://www.w3.org/1999/xlink" x="0px" y="0px"
	 viewBox="0 0 25 25" enable-background="new 0 0 25 25" xml:space="preserve">
<g>
	<g>
		<path fill="#E62339" d="M12.6,0.1C5.7,0.1,0.2,5.7,0.2,12.5s5.6,12.4,12.4,12.4S25,19.3,25,12.5S19.4,0.1,12.6,0.1z M13.8,18.9
			c-0.3,0.3-0.6,0.8-1.3,0.8l0,0h-0.1l0,0c-0.5,0-0.9-0.4-1.3-0.8c-3.4-3.6-5.8-4.1-5.9-8c0.1-1.9,1.2-3.7,3-4.1
			c1.9-0.4,3.4,1,4.3,2.5h0.1c0.9-1.5,2.4-2.9,4.3-2.5c1.8,0.4,3,2.2,2.9,4C19.6,14.8,15.4,17.4,13.8,18.9z"/>
	</g>
</g>
</svg>
