<?xml version="1.0" encoding="utf-8"?>
<!-- Generator: Adobe Illustrator 18.0.0, SVG Export Plug-In . SVG Version: 6.00 Build 0)  -->
<!DOCTYPE svg PUBLIC "-//W3C//DTD SVG 1.1//EN" "http://www.w3.org/Graphics/SVG/1.1/DTD/svg11.dtd">
<svg version="1.1" id="Layer_1" xmlns="http://www.w3.org/2000/svg" xmlns:xlink="http://www.w3.org/1999/xlink" x="0px" y="0px"
	 viewBox="0 0 25 25" enable-background="new 0 0 25 25" xml:space="preserve">
<path fill="#FFFFFF" stroke="#231F20" stroke-width="0.8949" stroke-linecap="round" stroke-miterlimit="10" d="M13.7,15.3"/>
<path fill="#FFFFFF" stroke="#231F20" stroke-width="0.8949" stroke-linecap="round" stroke-miterlimit="10" d="M12,13.7"/>
<g>
	<g>
		<path fill="#1A1A1A" d="M12.5,24.9C12.5,24.9,12.5,24.9,12.5,24.9C12.5,24.9,12.5,24.9,12.5,24.9C12.5,24.9,12.5,24.9,12.5,24.9z
			 M12.5,0.1C5.7,0.1,0.1,5.7,0.1,12.5c0,6.1,4.4,11.2,10.2,12.2v-8.4c0-0.8,0.3-1.1,1.1-1.1h2.7c0.8,0,1.2,0.3,1.2,1.1v8.3
			c5.5-1.3,9.6-6.2,9.6-12.1C24.9,5.7,19.3,0.1,12.5,0.1z M12.8,13.9c-2.5,0-4.6-2-4.6-4.4c0-1.2,0.5-2.2,1.2-3
			c0.3-0.3,0.8-0.1,0.8,0.3v1.7c0,1,0.8,1.8,1.8,1.8h1.4c1,0,1.7-0.8,1.7-1.7v-2c0-0.4,0.5-0.6,0.7-0.3c0.9,0.8,1.5,2,1.5,3.3
			C17.4,11.9,15.3,13.9,12.8,13.9z"/>
	</g>
</g>
</svg>
