<?xml version="1.0" encoding="utf-8"?>
<!-- Generator: Adobe Illustrator 18.0.0, SVG Export Plug-In . SVG Version: 6.00 Build 0)  -->
<!DOCTYPE svg PUBLIC "-//W3C//DTD SVG 1.1//EN" "http://www.w3.org/Graphics/SVG/1.1/DTD/svg11.dtd">
<svg version="1.1" id="Layer_1" xmlns="http://www.w3.org/2000/svg" xmlns:xlink="http://www.w3.org/1999/xlink" x="0px" y="0px"
	 viewBox="0 0 25 25" enable-background="new 0 0 25 25" xml:space="preserve">
<path fill="none" stroke="#231F20" stroke-width="0.9558" stroke-linecap="round" stroke-linejoin="round" stroke-miterlimit="10" d="
	M16.8,18.4"/>
<path fill="none" stroke="#231F20" stroke-width="0.9558" stroke-linecap="round" stroke-linejoin="round" stroke-miterlimit="10" d="
	M19.2,17.5"/>
<g>
	<g>
		<path fill="#1A1A1A" d="M12.5,24.9C12.5,24.9,12.5,24.9,12.5,24.9C12.5,24.9,12.5,24.9,12.5,24.9C12.5,24.9,12.5,24.9,12.5,24.9z
			 M12.5,0.1C5.7,0.1,0.1,5.7,0.1,12.5c0,6.1,4.5,11.2,10.3,12.2v-3.1c0-0.6,0.6-1.3,1.3-1.3h1.9c0.6,0,1.3,0.7,1.3,1.3v3
			c5.7-1.1,10-6.1,10-12.2C24.9,5.7,19.3,0.1,12.5,0.1z M11.6,19c0.1-0.5,0.2-1.7,0.2-2.9c0.4,0,0.9,0,1.3,0c0,1.4,0.1,2.7,0.1,3
			L11.6,19z M15.5,19.1l-1.2,0c0,0,0,0,0-0.1c-0.1-1-0.2-2-0.1-3c0.6-0.1,1-0.2,1.3-0.2c1-0.3,1.9-1.3,1.9-2.3
			c0-0.8-0.5-1.4-1.4-1.7c-0.6-0.2-1.1,0-1.5,0.3c-0.7,0.6-1,1.7-1.1,2.9c-0.4,0-0.9,0-1.4,0c-0.1-1.2-0.3-2.3-0.9-2.8
			c-0.8-0.8-1.9-0.6-2.6,0.1c-0.7,0.7-0.9,1.9,0.1,2.9c0,0,0.1,0.1,0.1,0.1c0.6,0.4,1.4,0.6,2.3,0.7c0,1-0.1,2.1-0.2,2.9
			c0,0,0,0,0,0.1l-0.8,0c-1.8-1-3.1-3-3.1-5.2c0-3.3,2.7-5.9,5.9-5.9c3.3,0,5.9,2.7,5.9,5.9C18.6,16.1,17.3,18,15.5,19.1z M14.2,15
			c0.1-0.9,0.4-1.7,0.7-2c0.1-0.1,0.2-0.2,0.4-0.2c0.1,0,0.1,0,0.2,0c0.7,0.2,0.7,0.6,0.7,0.7c0,0.5-0.5,1.1-1.1,1.3
			C14.9,14.9,14.6,14.9,14.2,15z M10.8,15c-0.7-0.1-1.2-0.2-1.6-0.5c-0.5-0.6-0.4-1.2-0.1-1.5c0.3-0.3,0.8-0.4,1.2,0
			C10.5,13.4,10.7,14.1,10.8,15z"/>
	</g>
</g>
</svg>
