<?xml version="1.0" encoding="utf-8"?>
<!-- Generator: Adobe Illustrator 18.0.0, SVG Export Plug-In . SVG Version: 6.00 Build 0)  -->
<!DOCTYPE svg PUBLIC "-//W3C//DTD SVG 1.1//EN" "http://www.w3.org/Graphics/SVG/1.1/DTD/svg11.dtd">
<svg version="1.1" id="Layer_1" xmlns="http://www.w3.org/2000/svg" xmlns:xlink="http://www.w3.org/1999/xlink" x="0px" y="0px"
	 viewBox="0 0 25 25" enable-background="new 0 0 25 25" xml:space="preserve">
<g>
	<g>
		<path fill="#B78621" d="M15,5c0.1,0,0.2-0.1,0.3-0.1l0,0c0.1,0,0.2,0,0.3,0s0.1,0,0.2,0c0.7,0,1.4,0.5,1.7,1.1
			c0.4,0.9,0,2-0.9,2.4c-1,0.5-2.1,0-2.5-0.9C13.7,6.5,14.1,5.4,15,5z M20.4,10.8c-0.1,0-0.2,0.1-0.3,0.1c-0.7,0.1-3,0.5-3.7,0.7
			c-0.3,0.1-0.5,0-0.7-0.1c-0.2-0.1-0.5-0.3-0.7-0.5l0,0c-0.4,0.6-0.8,1.2-1.2,1.8l0,0c0.3,0.2,0.5,0.4,0.8,0.6
			c0.1,0.1,0.3,0.2,0.4,0.3c0.3,0.2,0.4,0.5,0.4,0.8c0,0.2-0.1,0.4-0.2,0.6c-0.9,1.4-2.8,4.1-2.8,4.2c-0.1,0.2-0.3,0.3-0.4,0.3l0,0
			c-0.1,0-0.2,0-0.3,0l0,0c-0.4,0-0.7-0.2-0.9-0.5s-0.2-0.6-0.1-0.9c0-0.1,1.6-2.3,2.3-3.4c0,0,0,0,0-0.1c-0.5-0.3-1-0.7-1.4-1
			c0,0,0,0,0,0.1c-0.3,0.5-0.7,1-1,1.5c-0.2,0.3-0.5,0.3-0.8,0.4c-1,0.2-3.5,0.6-4,0.7c-0.1,0-0.2,0-0.3,0c-0.8-0.1-0.9-0.9-0.9-0.9
			c0-0.3,0.1-0.6,0.4-0.8c0.1-0.1,0.2-0.1,0.4-0.2c0,0,3.7-0.7,3.7-0.8c0.9-1.3,1.8-2.6,2.7-3.9c0,0,0,0,0-0.1l0,0c0,0,0,0-0.1,0
			c-0.3,0.1-4,0.9-4.6,1c-0.1,0-0.2,0-0.3,0c-0.3,0-0.5-0.2-0.6-0.5c-0.1-0.2-0.1-0.3,0-0.5c0.1-0.3,0.3-0.5,0.6-0.6
			c0,0,4.7-1,6.2-1.2c0.2,0,0.4,0,0.6,0.1c0,0,1.9,1.3,2.8,2h0.1c0.6-0.1,2.8-0.5,3.3-0.6c0.1,0,0.2,0,0.3,0
			C20.8,9.4,21,10.5,20.4,10.8z M12.5,0.1C5.7,0.1,0.1,5.7,0.1,12.5s5.6,12.4,12.4,12.4s12.4-5.6,12.4-12.4S19.3,0.1,12.5,0.1z"/>
	</g>
</g>
<path fill="#B78621" d="M-8.6-24.4h36.9c3.7,0,6.7,3,6.7,6.7v0c0,3.7-3,6.7-6.7,6.7H-8.6c-3.7,0-6.7-3-6.7-6.7v0
	C-15.3-21.4-12.3-24.4-8.6-24.4z"/>
</svg>
