<?xml version="1.0" encoding="utf-8"?>
<!-- Generator: Adobe Illustrator 18.0.0, SVG Export Plug-In . SVG Version: 6.00 Build 0)  -->
<!DOCTYPE svg PUBLIC "-//W3C//DTD SVG 1.1//EN" "http://www.w3.org/Graphics/SVG/1.1/DTD/svg11.dtd">
<svg version="1.1" id="Layer_1" xmlns="http://www.w3.org/2000/svg" xmlns:xlink="http://www.w3.org/1999/xlink" x="0px" y="0px"
	 viewBox="0 0 25 25" enable-background="new 0 0 25 25" xml:space="preserve">
<g>
	<g>
		<path fill="#1A1A1A" d="M12.5,2.5c-5.5,0-10,4.5-10,10c0,5.5,4.5,10,10,10c5.5,0,10-4.5,10-10C22.5,7,18,2.5,12.5,2.5z M15,5
			c0.1,0,0.2-0.1,0.3-0.1c0,0,0,0,0,0c0.1,0,0.2,0,0.3,0c0.1,0,0.1,0,0.2,0c0.7,0,1.4,0.5,1.7,1.1c0.4,0.9,0,2-0.9,2.4
			c-1,0.5-2.1,0-2.5-0.9C13.7,6.5,14.1,5.4,15,5z M20.4,10.8c-0.1,0-0.2,0.1-0.3,0.1c-0.7,0.1-3,0.5-3.7,0.7c-0.2,0-0.5,0-0.7-0.1
			c-0.2-0.2-0.5-0.3-0.7-0.5c0,0,0,0,0,0c-0.4,0.6-0.8,1.2-1.2,1.8c0,0,0,0,0,0c0.3,0.2,0.6,0.4,0.8,0.6c0.1,0.1,0.3,0.2,0.4,0.3
			c0.3,0.2,0.4,0.5,0.4,0.8c0,0.2-0.1,0.4-0.2,0.6c-0.9,1.4-1.9,2.7-2.8,4.1c0,0,0,0,0,0.1c-0.1,0.2-0.3,0.3-0.4,0.3c0,0,0,0,0,0
			c-0.1,0-0.2,0-0.3,0c0,0,0,0,0,0c-0.4,0-0.7-0.2-0.9-0.5c-0.2-0.3-0.2-0.6-0.1-0.9c0-0.1,0.1-0.2,0.1-0.2c0.7-1.1,1.5-2.1,2.2-3.2
			c0,0,0,0,0-0.1c-0.5-0.3-1-0.7-1.4-1c0,0,0,0,0,0.1c-0.3,0.5-0.7,1-1,1.5c-0.2,0.3-0.5,0.3-0.8,0.4c-1,0.2-1.9,0.4-2.9,0.5
			c-0.4,0.1-0.7,0.1-1.1,0.2c-0.1,0-0.2,0-0.3,0c-0.4,0-0.7-0.3-0.9-0.6c0,0,0-0.1,0-0.1c0-0.1,0,0,0-0.1c0,0,0-0.1,0-0.1
			c0-0.3,0.1-0.6,0.4-0.8c0.1-0.1,0.2-0.1,0.4-0.2c0,0,0.1,0,0.2,0C6.6,14.2,7.8,14,9,13.8c0.1,0,0.1,0,0.1-0.1
			c0.9-1.3,1.8-2.6,2.7-3.9c0,0,0,0,0-0.1c0,0,0,0,0,0c0,0,0,0-0.1,0c-0.3,0.1-0.6,0.1-0.9,0.2c-0.7,0.1-3.1,0.7-3.7,0.8
			c-0.1,0-0.2,0-0.3,0c-0.3,0-0.5-0.2-0.6-0.5c-0.1-0.2-0.1-0.3,0-0.5c0.1-0.3,0.3-0.5,0.6-0.6c0,0,0.1,0,0.1,0
			c1.5-0.3,4.6-1,6.1-1.2c0.2,0,0.4,0,0.6,0.1c0,0,0.1,0,0.1,0.1c0.9,0.6,1.8,1.2,2.7,1.9c0,0,0.1,0,0.1,0c0.6-0.1,2.8-0.5,3.3-0.6
			c0.1,0,0.2,0,0.3,0c0.3,0.1,0.5,0.2,0.6,0.5c0,0,0,0,0,0l0.1,0.3c0,0,0,0,0,0C20.8,10.4,20.6,10.6,20.4,10.8z M12.5,0.1
			C5.7,0.1,0.1,5.7,0.1,12.5c0,6.8,5.6,12.4,12.4,12.4s12.4-5.6,12.4-12.4C24.9,5.7,19.3,0.1,12.5,0.1z M12.5,22.7
			c-5.6,0-10.2-4.6-10.2-10.2S6.8,2.3,12.5,2.3s10.2,4.6,10.2,10.2S18.1,22.7,12.5,22.7z"/>
	</g>
</g>
</svg>
