<?xml version="1.0" encoding="utf-8"?>
<!-- Generator: Adobe Illustrator 18.0.0, SVG Export Plug-In . SVG Version: 6.00 Build 0)  -->
<!DOCTYPE svg PUBLIC "-//W3C//DTD SVG 1.1//EN" "http://www.w3.org/Graphics/SVG/1.1/DTD/svg11.dtd">
<svg version="1.1" id="Layer_1" xmlns="http://www.w3.org/2000/svg" xmlns:xlink="http://www.w3.org/1999/xlink" x="0px" y="0px"
	 viewBox="0 0 25 25" enable-background="new 0 0 25 25" xml:space="preserve">
<g>
	<g>
		<path fill="#1A1A1A" d="M12.6,0.1C5.8,0.1,0.2,5.7,0.2,12.5c0,6.8,5.6,12.4,12.4,12.4c6.8,0,12.4-5.6,12.4-12.4
			C25,5.7,19.4,0.1,12.6,0.1z M12.5,4c1.4,0,2.6,1.2,2.6,2.6c0,1.4-1.2,2.6-2.6,2.6c-1.4,0-2.6-1.2-2.6-2.6C9.9,5.2,11.1,4,12.5,4z
			 M17.9,18.9l-2.2-5.7h-0.3l-0.1,5.2c0,0.6-0.5,0.9-1.1,0.9h-3c-0.6,0-1.1-0.3-1.1-0.9l-0.1-5.2H9.6l-2.2,5.7
			c-0.4,0.9-2.2,0.3-2-0.9l2.6-6.8c0.4-0.8,1.1-1.1,1.6-1.1h6c0.5,0,1.2,0.2,1.6,1.1l2.6,6.8C20.1,19.2,18.2,19.8,17.9,18.9z"/>
	</g>
</g>
</svg>
