<?xml version="1.0" encoding="utf-8"?>
<!-- Generator: Adobe Illustrator 18.0.0, SVG Export Plug-In . SVG Version: 6.00 Build 0)  -->
<!DOCTYPE svg PUBLIC "-//W3C//DTD SVG 1.1//EN" "http://www.w3.org/Graphics/SVG/1.1/DTD/svg11.dtd">
<svg version="1.1" id="Layer_1" xmlns="http://www.w3.org/2000/svg" xmlns:xlink="http://www.w3.org/1999/xlink" x="0px" y="0px"
	 viewBox="0 0 25 25" enable-background="new 0 0 25 25" xml:space="preserve">
<g>
	<g>
		<path fill="#A81E3E" d="M15.9,12.4h3.4l-1.7-3.5L15.9,12.4z M17.8,15.3c-1.4,0-2.5-1.3-2.7-2.4c-0.1-0.2,0.1-0.4,0.3-0.4l1.8-3.8
			h-3.7v9.9H15c0.5,0,0.9,0.4,0.9,0.9v0.3c0,0.5-0.4,0.9-0.9,0.9H9.8c-0.5,0-0.9-0.4-0.9-0.9v-0.3c0-0.5,0.4-0.9,0.9-0.9h1.7V8.7
			H7.3l1.8,3.8h0.1c0.2,0,0.4,0.2,0.3,0.4c-0.3,1.1-1.4,2.4-2.7,2.4S4.3,13.9,4,12.9c-0.1-0.2,0.1-0.4,0.3-0.4l0,0l1.8-3.8l0,0
			c-0.5,0-0.9-0.4-0.9-0.9V7.6c0-0.5,0.4-0.9,0.9-0.9h12.5c0.5,0,0.9,0.4,0.9,0.9v0.2c0,0.5-0.4,0.9-0.9,0.9H18l1.8,3.8H20
			c0.2,0,0.4,0.2,0.3,0.4C20.3,13.9,19.1,15.3,17.8,15.3z M5,12.4h3.4L6.8,8.9L5,12.4z M12.5,0.1C5.7,0.1,0.1,5.6,0.1,12.5
			c0,6.8,5.6,12.4,12.4,12.4s12.4-5.6,12.4-12.4C24.9,5.6,19.3,0.1,12.5,0.1z"/>
	</g>
</g>
</svg>
